<svg width="53" height="27" viewBox="0 0 53 27" fill="none" xmlns="http://www.w3.org/2000/svg">
<path d="M20.3342 13.3115L27.2362 15.4911L33.0485 9.67885L40.3138 14.7646L47.9423 13.3115L44.6729 2.77682L33.0485 6.40947L26.5097 2.77682L19.6077 3.86661L20.3342 13.3115Z" fill="#F1A501"/>
<path d="M21.5598 12.165C22.3842 12.9894 23.3756 13.4016 24.5342 13.4016C25.6928 13.4016 26.6731 12.9894 27.4752 12.165C28.2996 11.3406 28.7118 10.1932 28.7118 8.72272C28.7118 7.25222 28.2996 6.10479 27.4752 5.28042C26.6731 4.45605 25.6928 4.04386 24.5342 4.04386C23.3756 4.04386 22.3842 4.45605 21.5598 5.28042C20.7577 6.10479 20.3567 7.25222 20.3567 8.72272C20.3567 10.1932 20.7577 11.3406 21.5598 12.165ZM18.3514 2.47311C20.0002 0.824369 22.0611 0 24.5342 0C27.0073 0 29.0571 0.824369 30.6836 2.47311C32.3323 4.12185 33.1567 6.20505 33.1567 8.72272C33.1567 11.2404 32.3323 13.3236 30.6836 14.9723C29.0571 16.6211 27.0073 17.4454 24.5342 17.4454C22.0611 17.4454 20.0002 16.6211 18.3514 14.9723C16.725 13.3236 15.9117 11.2404 15.9117 8.72272C15.9117 6.20505 16.725 4.12185 18.3514 2.47311Z" fill="#181E4B"/>
<path d="M38.4031 12.165C39.2275 12.9894 40.219 13.4016 41.3775 13.4016C42.5361 13.4016 43.5164 12.9894 44.3185 12.165C45.1429 11.3406 45.5551 10.1932 45.5551 8.72272C45.5551 7.25222 45.1429 6.10479 44.3185 5.28042C43.5164 4.45605 42.5361 4.04386 41.3775 4.04386C40.219 4.04386 39.2275 4.45605 38.4031 5.28042C37.601 6.10479 37.2 7.25222 37.2 8.72272C37.2 10.1932 37.601 11.3406 38.4031 12.165ZM35.1948 2.47311C36.8435 0.824369 38.9044 0 41.3775 0C43.8507 0 45.9004 0.824369 47.5269 2.47311C49.1756 4.12185 50 6.20505 50 8.72272C50 11.2404 49.1756 13.3236 47.5269 14.9723C45.9004 16.6211 43.8507 17.4454 41.3775 17.4454C38.9044 17.4454 36.8435 16.6211 35.1948 14.9723C33.5683 13.3236 32.7551 11.2404 32.7551 8.72272C32.7551 6.20505 33.5683 4.12185 35.1948 2.47311Z" fill="#181E4B"/>
<path d="M10.6259 4.88641L12.788 4.88641L13.8919 11.0044L10.902 11.0044C9.27662 11.0351 8.04995 11.4491 7.22195 12.2464C6.42462 13.0744 6.02595 14.1631 6.02595 15.5124C6.02595 16.8311 6.45528 17.8737 7.31395 18.6404C8.17262 19.4377 9.32262 19.8364 10.7639 19.8364L52.5 19.8364L52.5 26.1844L10.7639 26.1844C7.75862 26.1844 5.21329 25.1877 3.12795 23.1944C1.04262 21.2011 -5.01929e-05 18.6557 -5.00576e-05 15.5584C-4.99168e-05 12.3384 0.965949 9.74708 2.89795 7.78441C4.86062 5.85241 7.43662 4.88641 10.6259 4.88641Z" fill="#181E4B"/>
</svg>
