<svg width="350" height="350" viewBox="0 0 350 350" fill="none" xmlns="http://www.w3.org/2000/svg">
<path d="M150.898 313.854C147.696 313.296 144.742 311.768 142.436 309.477C140.131 307.186 138.584 304.243 138.006 301.044L121.725 218.125C121.563 217.305 121.662 216.456 122.007 215.695C122.353 214.934 122.928 214.3 123.652 213.883L185.928 177.928C186.879 177.382 187.708 176.646 188.362 175.766C189.017 174.886 189.483 173.881 189.733 172.813C189.983 171.745 190.01 170.637 189.814 169.559C189.618 168.48 189.201 167.452 188.591 166.541C187.406 164.85 185.625 163.67 183.606 163.236C181.587 162.802 179.479 163.147 177.703 164.202L115.722 199.987C115 200.405 114.165 200.588 113.334 200.508C112.504 200.429 111.719 200.091 111.089 199.544L47.3256 143.982C44.8616 141.863 43.1011 139.045 42.2782 135.901C41.4553 132.757 41.6091 129.438 42.7191 126.384C43.8291 123.33 45.8427 120.686 48.492 118.805C51.1413 116.923 54.3007 115.893 57.5499 115.851L251.026 114.941C253.865 114.909 256.661 115.633 259.127 117.039C261.594 118.445 263.642 120.481 265.061 122.94C266.481 125.398 267.22 128.19 267.205 131.029C267.189 133.868 266.418 136.652 264.971 139.094L167.518 306.221C165.872 309.051 163.391 311.302 160.416 312.669C157.441 314.035 154.117 314.449 150.898 313.854Z" fill="black"/>
</svg>
