<svg width="656" height="138" viewBox="0 0 656 138" fill="none" xmlns="http://www.w3.org/2000/svg">
<path d="M0.441895 7.67217C1.95391 7.79817 3.90692 7.92417 6.30094 8.05017C8.69496 8.05017 11.215 8.11317 13.861 8.23917C16.633 8.23917 19.153 8.23917 21.4211 8.23917C23.8151 8.23917 25.7681 8.23917 27.2801 8.23917C29.2961 8.23917 31.9422 8.23917 35.2182 8.23917C38.6202 8.23917 42.1482 8.17617 45.8023 8.05017C49.4563 7.92417 52.6063 7.79817 55.2523 7.67217C55.2523 9.56218 55.1263 11.5152 54.8743 13.5312C54.7483 15.4212 54.4333 17.3112 53.9293 19.2013C49.8973 19.5793 46.9363 20.3353 45.0463 21.4693C43.1562 22.6033 42.3372 24.6193 42.5892 27.5173C42.8412 30.2894 43.9753 34.5104 45.9913 40.1804C48.0073 46.3545 50.0863 52.9695 52.2283 60.0256C54.4963 66.9557 56.7014 74.2007 58.8434 81.7608C61.1114 89.1948 63.3164 96.6919 65.4584 104.252H58.8434L92.2967 8.05017C93.9347 7.54616 95.8247 7.23116 97.9667 7.10516C100.109 6.85316 102.314 6.72716 104.582 6.72716C108.866 17.5632 113.024 28.3993 117.056 39.2354C121.088 49.9455 125.057 60.7186 128.963 71.5547C132.995 82.2648 136.964 93.0379 140.87 103.874H135.011L152.777 46.2285C155.675 36.7784 156.368 30.1634 154.856 26.3833C153.344 22.4773 149.564 20.0833 143.516 19.2013C142.76 17.5632 142.256 15.6732 142.004 13.5312C141.878 11.3892 141.815 9.43618 141.815 7.67217C144.461 7.79817 147.674 7.92417 151.454 8.05017C155.36 8.17617 159.014 8.23917 162.416 8.23917C165.314 8.23917 168.59 8.17617 172.244 8.05017C176.024 7.92417 179.174 7.79817 181.694 7.67217C181.694 9.56218 181.631 11.5152 181.505 13.5312C181.379 15.4212 180.938 17.3112 180.182 19.2013C178.04 19.8313 176.15 21.0283 174.512 22.7923C172.874 24.4303 171.299 27.1393 169.787 30.9194C168.401 34.5734 166.637 39.7394 164.495 46.4175L137.09 136.193C135.578 136.697 133.373 137.075 130.475 137.327C127.703 137.579 125.12 137.705 122.726 137.705C118.946 127.121 115.103 116.663 111.197 106.331C107.417 95.8729 103.511 85.4148 99.4787 74.9567C95.5727 64.4986 91.4777 53.9776 87.1936 43.3935H92.4857L60.3554 136.382C59.2214 136.76 57.7724 137.012 56.0084 137.138C54.2443 137.39 52.4803 137.516 50.7163 137.516C49.0783 137.642 47.5663 137.705 46.1803 137.705C41.1402 120.821 36.1002 104.315 31.0601 88.1868C26.0201 72.0587 21.1691 56.9386 16.507 42.8265C14.113 35.7704 12.223 30.6674 10.837 27.5173C9.45097 24.2413 8.12796 22.1623 6.86795 21.2803C5.60794 20.2723 3.84392 19.7053 1.5759 19.5793C1.0719 17.8152 0.756897 15.9252 0.630896 13.9092C0.504895 11.7672 0.441895 9.68818 0.441895 7.67217Z" fill="#181E4B"/>
<path d="M231.594 137.705C229.452 136.823 227.94 135.563 227.058 133.925C226.176 132.161 225.735 129.767 225.735 126.743C225.735 125.231 225.861 123.467 226.113 121.451C226.365 119.309 226.806 117.293 227.436 115.403L228.003 114.836C227.121 118.112 225.861 121.136 224.223 123.908C222.585 126.554 220.632 128.759 218.364 130.523C215.844 132.791 212.757 134.492 209.103 135.626C205.575 136.76 201.353 137.327 196.439 137.327C187.997 137.327 181.445 135.5 176.783 131.846C172.121 128.192 169.79 122.963 169.79 116.159C169.79 111.371 170.861 107.276 173.003 103.874C175.271 100.346 178.295 97.3849 182.075 94.9909C185.855 92.5969 190.076 90.6439 194.738 89.1318C199.4 87.6198 204.126 86.4228 208.914 85.5408C213.828 84.6588 218.427 83.9028 222.711 83.2728C222.711 79.6188 222.585 76.5947 222.333 74.2007C222.207 71.6807 221.829 69.6017 221.199 67.9637C220.695 66.1997 219.813 64.6876 218.553 63.4276C217.167 61.6636 215.529 60.4666 213.639 59.8366C211.875 59.0806 209.985 58.7026 207.969 58.7026C204.441 58.7026 201.605 59.7736 199.463 61.9156C197.447 63.9316 195.935 66.5777 194.927 69.8537C193.919 73.1297 193.289 76.4687 193.037 79.8708C190.013 79.8708 187.178 79.7448 184.532 79.4928C181.886 79.2408 179.555 78.7368 177.539 77.9808C177.791 74.5787 177.854 70.9247 177.728 67.0187C177.602 63.1126 177.161 59.2066 176.405 55.3006C181.697 52.9065 187.745 51.0165 194.549 49.6305C201.479 48.2445 207.969 47.5515 214.017 47.5515C221.199 47.5515 226.995 48.4335 231.405 50.1975C235.815 51.8355 239.154 53.7885 241.422 56.0566C244.068 58.8286 246.084 62.6086 247.47 67.3967C248.982 72.0587 249.738 78.7998 249.738 87.6198V104.063C249.738 108.095 249.99 111.245 250.494 113.513C250.998 115.655 252.006 117.167 253.518 118.049C255.156 118.931 257.613 119.435 260.889 119.561C261.141 121.577 261.141 123.656 260.889 125.798C260.637 127.814 260.07 129.704 259.188 131.468C254.652 131.594 249.927 132.224 245.013 133.358C240.225 134.366 235.752 135.815 231.594 137.705ZM205.89 121.64C208.41 121.64 210.993 120.821 213.639 119.183C216.285 117.419 218.427 114.836 220.065 111.434C221.829 108.032 222.711 103.685 222.711 98.3929V93.2899C219.057 93.9199 215.592 94.6759 212.316 95.5579C209.166 96.4399 206.394 97.5739 204 98.9599C201.731 100.22 199.967 101.858 198.707 103.874C197.447 105.764 196.817 108.158 196.817 111.056C196.817 114.836 197.699 117.545 199.463 119.183C201.353 120.821 203.496 121.64 205.89 121.64Z" fill="#181E4B"/>
<path d="M278.825 96.5029V80.0598C278.825 76.4057 278.51 73.5707 277.88 71.5547C277.376 69.4127 276.116 67.8377 274.1 66.8297C272.21 65.6956 269.186 65.0026 265.028 64.7506C265.028 62.8606 265.154 61.0336 265.406 59.2696C265.784 57.3796 266.414 55.6156 267.296 53.9776C273.974 53.9776 280.4 53.3475 286.574 52.0875C292.874 50.7015 297.473 49.2525 300.371 47.7405C302.135 48.3705 303.458 49.5045 304.34 51.1425C305.348 52.6545 305.852 54.9226 305.852 57.9466L278.825 96.5029ZM365.766 108.599C365.766 114.899 366.459 119.246 367.845 121.64C369.357 123.908 371.814 125.042 375.216 125.042C375.846 126.554 376.224 128.255 376.35 130.145C376.602 131.909 376.728 134.051 376.728 136.571C373.956 136.445 370.365 136.319 365.955 136.193C361.671 136.067 357.45 136.004 353.292 136.004C350.52 136.004 347.369 136.004 343.841 136.004C340.439 136.13 337.163 136.193 334.013 136.193C330.863 136.319 328.343 136.445 326.453 136.571C326.453 134.303 326.516 132.224 326.642 130.334C326.768 128.444 327.146 126.68 327.776 125.042C331.304 125.042 334.013 123.782 335.903 121.262C337.793 118.742 338.738 114.143 338.738 107.465V86.8638C338.738 78.9258 337.478 73.4447 334.958 70.4207C332.438 67.2707 328.847 65.6956 324.185 65.6956C321.161 65.6956 318.2 66.8927 315.302 69.2867C312.53 71.5547 310.262 74.9567 308.498 79.4928C306.734 83.9028 305.852 89.4468 305.852 96.1249V108.599C305.852 115.025 306.671 119.372 308.309 121.64C310.073 123.908 312.845 125.042 316.625 125.042C317.381 126.806 317.822 128.57 317.948 130.334C318.074 132.098 318.137 134.177 318.137 136.571C316.373 136.445 313.979 136.319 310.955 136.193C307.931 136.193 304.781 136.13 301.505 136.004C298.355 136.004 295.331 136.004 292.433 136.004C289.535 136.004 286.322 136.004 282.794 136.004C279.266 136.13 275.864 136.193 272.588 136.193C269.312 136.319 266.729 136.445 264.839 136.571C264.839 134.177 264.965 131.972 265.217 129.956C265.469 127.94 265.847 126.302 266.351 125.042C271.265 125.042 274.541 123.908 276.179 121.64C277.943 119.246 278.825 114.899 278.825 108.599V80.0598L305.852 57.9466C305.852 59.4586 305.663 61.2226 305.285 63.2386C305.033 65.1286 304.592 67.1447 303.962 69.2867C304.718 67.7747 305.474 66.2627 306.23 64.7506C306.986 63.2386 307.994 61.7896 309.254 60.4036C311.774 57.5056 315.302 54.8596 319.838 52.4655C324.374 49.9455 329.603 48.6855 335.525 48.6855C340.817 48.6855 345.731 49.6935 350.268 51.7095C354.93 53.7256 358.647 57.0016 361.419 61.5376C364.317 66.0737 365.766 72.0587 365.766 79.4928V108.599Z" fill="#181E4B"/>
<path d="M430.698 47.7405C433.596 47.7405 436.242 47.9925 438.636 48.4965C441.156 48.8745 443.802 49.4415 446.574 50.1975V67.7747C444.306 65.0026 441.912 62.8606 439.392 61.3486C436.998 59.7106 433.974 58.8916 430.32 58.8916C427.926 58.8916 425.343 59.3956 422.571 60.4036C419.925 61.2856 417.405 62.9866 415.011 65.5066C412.617 67.9007 410.664 71.4287 409.152 76.0907C407.64 80.6268 406.884 86.4858 406.884 93.6679C406.884 99.5899 407.64 104.693 409.152 108.977C410.79 113.261 412.932 116.6 415.578 118.994C418.224 121.262 421.248 122.396 424.65 122.396C427.926 122.396 431.076 121.388 434.1 119.372C437.124 117.23 439.581 113.828 441.471 109.166C443.487 104.378 444.495 98.0779 444.495 90.2659L451.866 109.544C449.85 114.458 447.96 118.301 446.196 121.073C444.432 123.719 442.731 125.735 441.093 127.121C439.833 128.633 437.943 130.208 435.423 131.846C433.029 133.484 430.194 134.87 426.918 136.004C423.642 137.138 420.051 137.705 416.145 137.705C408.963 137.705 402.537 136.319 396.867 133.547C391.323 130.775 386.976 126.428 383.826 120.506C380.676 114.584 379.101 106.961 379.101 97.6369C379.101 88.0608 381.243 79.4928 385.527 71.9327C389.811 64.3726 395.796 58.4506 403.482 54.1665C411.294 49.8825 420.366 47.7405 430.698 47.7405ZM471.333 104.441C471.333 108.347 471.585 111.434 472.089 113.702C472.593 115.844 473.664 117.356 475.302 118.238C476.94 119.12 479.334 119.561 482.484 119.561C482.736 121.577 482.736 123.656 482.484 125.798C482.232 127.814 481.665 129.704 480.783 131.468C476.247 131.594 471.459 132.224 466.419 133.358C461.505 134.366 456.969 135.815 452.811 137.705C450.795 136.823 449.283 135.626 448.275 134.114C447.267 132.602 446.763 130.208 446.763 126.932C446.763 124.412 447.015 121.892 447.519 119.372C448.149 116.852 448.968 113.891 449.976 110.489L471.333 104.441ZM471.333 28.0843V111.434H444.495V28.0843H471.333ZM465.852 0.490112C467.49 1.12012 468.813 2.25412 469.821 3.89213C470.829 5.40415 471.333 7.60917 471.333 10.5072V34.5104H444.495V30.9194C444.495 27.8953 444.117 25.4383 443.361 23.5483C442.731 21.6583 441.408 20.2723 439.392 19.3903C437.376 18.3823 434.352 17.7523 430.32 17.5002C430.32 15.6102 430.446 13.7832 430.698 12.0192C431.076 10.1292 431.643 8.36518 432.399 6.72716C436.683 6.72716 441.03 6.41216 445.44 5.78216C449.85 5.15215 453.882 4.39614 457.536 3.51413C461.316 2.50612 464.088 1.49812 465.852 0.490112Z" fill="#181E4B"/>
<path d="M532.263 137.705C521.553 137.705 512.859 135.752 506.181 131.846C499.502 127.94 494.588 122.648 491.438 115.97C488.288 109.166 486.713 101.606 486.713 93.2899C486.713 84.3438 488.477 76.4687 492.005 69.6647C495.533 62.8606 500.573 57.5056 507.126 53.5995C513.804 49.6935 521.553 47.7405 530.373 47.7405C539.445 47.7405 546.816 49.5045 552.486 53.0325C558.282 56.4346 562.566 61.2226 565.338 67.3967C568.11 73.4447 569.685 80.3118 570.063 87.9978C569.181 91.6519 567.606 94.6129 565.338 96.8809C562.188 96.8809 558.345 96.9439 553.809 97.0699C549.273 97.0699 544.359 97.1329 539.067 97.2589C533.901 97.2589 528.609 97.3849 523.191 97.6369C517.899 97.7629 512.859 98.0149 508.071 98.3929V85.9188H544.359C544.359 77.4767 543.099 70.9877 540.579 66.4517C538.185 61.7896 534.657 59.4586 529.995 59.4586C526.971 59.4586 524.262 60.4666 521.868 62.4826C519.474 64.3726 517.584 67.4597 516.198 71.7437C514.812 75.9017 514.119 81.3828 514.119 88.1868C514.119 94.6129 514.938 100.535 516.576 105.953C518.214 111.371 520.923 115.655 524.703 118.805C528.609 121.955 533.901 123.53 540.579 123.53C544.863 123.53 549.147 122.711 553.431 121.073C557.715 119.435 561.369 117.293 564.393 114.647C565.527 115.277 566.598 116.537 567.606 118.427C568.614 120.317 569.118 122.207 569.118 124.097C564.456 128.759 559.101 132.224 553.053 134.492C547.005 136.634 540.075 137.705 532.263 137.705Z" fill="#181E4B"/>
<path d="M616.509 103.307C616.509 108.725 617.076 112.946 618.21 115.97C619.47 118.994 621.423 121.199 624.069 122.585C626.841 123.845 630.558 124.664 635.22 125.042C635.85 126.554 636.228 128.318 636.354 130.334C636.48 132.35 636.543 134.429 636.543 136.571C634.401 136.445 631.692 136.319 628.416 136.193C625.266 136.193 621.864 136.13 618.21 136.004C614.556 136.004 610.965 136.004 607.437 136.004C601.767 136.004 595.908 136.004 589.859 136.004C583.811 136.13 579.023 136.319 575.495 136.571C575.495 133.925 575.558 131.72 575.684 129.956C575.936 128.066 576.251 126.428 576.629 125.042C580.031 124.79 582.677 124.16 584.567 123.152C586.457 122.144 587.717 120.317 588.347 117.671C589.103 114.899 589.482 111.056 589.482 106.142V93.1009H616.509V103.307ZM616.509 80.2488V96.5029H589.482V75.9017L616.509 57.9466C616.509 61.0966 616.131 64.3096 615.375 67.5857C614.745 70.7357 613.926 74.5157 612.918 78.9258L616.509 80.2488ZM612.351 79.6818C613.359 76.7837 614.367 73.8857 615.375 70.9877C616.383 68.0897 617.328 65.8847 618.21 64.3726C620.982 59.9626 624.384 56.3086 628.416 53.4105C632.448 50.5125 636.984 49.0635 642.024 49.0635C646.938 49.0635 651.411 50.5755 655.443 53.5995C655.065 56.1196 654.687 59.0176 654.309 62.2936C654.057 65.4436 653.868 68.6567 653.742 71.9327C653.742 75.2087 653.805 78.2328 653.931 81.0048C652.041 81.7608 649.521 82.3278 646.371 82.7058C643.347 83.0838 640.638 83.2728 638.244 83.2728C638.118 78.2327 637.362 74.7677 635.976 72.8777C634.59 70.8617 632.637 69.8537 630.117 69.8537C628.227 69.8537 626.211 70.9877 624.069 73.2557C621.927 75.3977 620.1 78.2958 618.588 81.9498C617.202 85.4778 616.509 89.3208 616.509 93.4789L612.351 79.6818ZM589.482 96.5029V80.0598C589.482 76.4057 589.167 73.5707 588.536 71.5547C588.032 69.4127 586.772 67.8377 584.756 66.8297C582.866 65.6956 579.842 65.0026 575.684 64.7506C575.684 62.8606 575.81 61.0336 576.062 59.2696C576.44 57.3796 577.07 55.6156 577.952 53.9776C584.63 53.9776 591.056 53.3475 597.231 52.0875C603.531 50.7015 608.13 49.2525 611.028 47.7405C612.792 48.3705 614.115 49.5045 614.997 51.1425C616.005 52.6545 616.509 54.9226 616.509 57.9466L589.482 96.5029Z" fill="#181E4B"/>
</svg>
