<svg width="580" height="162" viewBox="0 0 580 162" fill="none" xmlns="http://www.w3.org/2000/svg">
<path d="M48.2735 125.504V19.8856H34.0689C29.2577 19.8856 25.3628 21.0311 22.3845 23.3222L4.74326 39.1305H0.161133V9.11756H118.838V39.1305H114.256L96.6149 23.3222C93.8657 21.0311 89.7418 19.8856 85.1596 19.8856H70.7259V125.504C70.7259 133.293 71.6423 139.479 73.4752 143.832C75.7663 148.414 78.7446 152.309 82.4103 154.371V158.953H36.8182V154.371C40.2548 152.309 43.4623 148.414 45.7533 143.832C47.3571 139.479 48.2735 133.293 48.2735 125.504Z" fill="#181E4B"/>
<path d="M200.951 95.4907C200.951 85.8682 200.035 78.5368 198.202 74.642C195.682 67.9979 189.267 64.5613 179.645 64.5613C175.75 64.5613 171.397 65.4778 167.273 66.8524C162.691 68.4561 159.025 70.5181 157.192 72.5801V129.398C157.192 136.501 157.879 142.228 158.796 145.207C159.941 147.956 163.149 151.393 167.731 154.371V158.953H125.117V154.371C129.699 151.393 132.678 147.956 133.823 145.207C134.969 142.228 135.656 136.501 135.656 129.398V40.7343C135.656 32.7155 134.74 26.3005 133.136 22.1766C131.761 19.1983 129.012 15.9908 125.117 13.0124V8.65936L157.192 0.640625V67.7688L174.375 53.3351C181.019 51.044 186.976 49.6694 192.016 49.6694C212.178 49.6694 222.487 62.7285 222.487 88.3884V129.398C222.487 136.501 223.175 142.228 224.32 145.207C225.237 147.956 228.444 151.393 233.026 154.371V158.953H190.413V154.371C194.995 151.393 197.973 147.956 199.119 145.207C200.264 142.228 200.951 136.501 200.951 129.398V95.4907Z" fill="#181E4B"/>
<path d="M274.439 129.398C274.439 136.501 275.126 142.228 276.043 145.207C277.188 147.956 280.396 151.393 284.978 154.371V158.953H242.364V154.371C246.946 151.393 249.925 147.956 251.07 145.207C252.216 142.228 252.903 136.501 252.903 129.398V89.9921C252.903 81.9734 251.987 75.5584 250.383 71.4345C249.008 68.227 246.259 65.2486 242.364 62.2703V57.9172L274.439 49.6694V71.6636L285.207 57.0008C295.288 52.1896 306.056 49.6694 316.824 49.6694V75.3293H312.471C308.805 71.2054 302.848 68.9144 294.6 68.9144C287.04 68.9144 280.167 72.8092 274.439 80.3697V129.398Z" fill="#181E4B"/>
<path d="M353.427 129.398C353.427 136.501 354.114 142.228 355.031 145.207C356.176 147.956 359.384 151.393 363.966 154.371V158.953H321.352V154.371C325.934 151.393 328.913 147.956 330.058 145.207C331.204 142.228 331.891 136.501 331.891 129.398V89.9921C331.891 81.9734 330.975 75.5584 329.371 71.4345C327.996 68.227 325.247 65.2486 321.352 62.2703V57.9172L353.427 49.6694V129.398ZM328.225 14.387C328.225 10.7213 329.6 7.28471 332.349 4.53544C335.099 1.78616 338.306 0.640625 342.201 0.640625C345.867 0.640625 349.303 1.78616 352.052 4.53544C354.573 7.28471 355.947 10.7213 355.947 14.387C355.947 18.2818 354.573 21.4893 352.052 24.2386C349.303 26.9879 345.867 28.3625 342.201 28.3625C338.306 28.3625 335.099 26.9879 332.349 24.2386C329.6 21.4893 328.225 18.2818 328.225 14.387Z" fill="#181E4B"/>
<path d="M368.659 52.8769H412.877V57.459C408.753 58.3755 406.691 61.1247 406.691 65.936C406.691 69.1435 407.378 73.2674 408.295 77.3913L428.456 135.584L448.846 76.704C450.221 71.8927 450.908 67.9979 450.679 65.0195C450.221 61.3538 448.159 58.6046 445.181 57.2299V52.8769H478.401V57.459C472.673 58.8337 467.175 66.1651 462.364 78.3077L430.289 158.953H416.313L382.635 71.8927C379.656 64.5613 374.845 59.521 368.659 57.459V52.8769Z" fill="#181E4B"/>
<path d="M495.28 144.29C487.261 134.21 483.137 122.067 483.137 108.092C483.137 92.5123 487.719 78.7659 496.884 67.3106C506.735 55.6262 519.336 49.6694 534.686 49.6694C547.516 49.6694 558.055 54.2515 566.074 62.7285C573.405 71.4345 577.3 82.6607 577.3 95.9489L505.59 106.717C505.59 117.485 508.797 126.878 514.754 134.439C521.856 142.458 532.166 146.581 544.767 146.581C552.327 146.581 563.554 141.312 577.758 131.002L579.591 132.377L561.262 155.975C553.473 159.87 544.996 161.932 536.748 161.932C519.336 161.932 505.59 155.975 495.28 144.29ZM553.015 90.2212C553.015 83.3481 551.64 76.704 549.349 70.7472C545.683 62.7285 539.726 58.6046 531.479 58.6046C521.627 58.6046 514.296 62.9576 510.172 71.4345C506.964 78.0786 505.361 86.7846 505.361 96.8653L553.015 90.2212Z" fill="#181E4B"/>
</svg>
