<svg width="665" height="128" viewBox="0 0 665 128" fill="none" xmlns="http://www.w3.org/2000/svg">
<path d="M0.899414 125V3.96403H42.2246C56.4031 3.96403 68.0456 6.50002 77.1521 11.572C86.3739 16.5287 93.1749 23.5603 97.5553 32.6668C102.051 41.6581 104.299 52.2632 104.299 64.482C104.299 76.7009 102.051 87.3636 97.5553 96.4701C93.1749 105.461 86.3739 112.493 77.1521 117.565C68.0456 122.522 56.4031 125 42.2246 125H0.899414ZM23.0317 105.98H41.1871C51.3311 105.98 59.3425 104.366 65.2214 101.139C71.1003 97.7957 75.3077 93.0696 77.8437 86.9601C80.3797 80.7354 81.6477 73.2427 81.6477 64.482C81.6477 55.8366 80.3797 48.4015 77.8437 42.1768C75.3077 35.9521 71.1003 31.1683 65.2214 27.8254C59.3425 24.4825 51.3311 22.8111 41.1871 22.8111H23.0317V105.98Z" fill="#181E4B"/>
<path d="M128.322 25.9234C124.288 25.9234 120.945 24.7131 118.294 22.2923C115.758 19.8716 114.49 16.8169 114.49 13.1282C114.49 9.43947 115.758 6.44239 118.294 4.13693C120.945 1.71622 124.288 0.505859 128.322 0.505859C132.357 0.505859 135.642 1.71622 138.178 4.13693C140.829 6.44239 142.155 9.43947 142.155 13.1282C142.155 16.8169 140.829 19.8716 138.178 22.2923C135.642 24.7131 132.357 25.9234 128.322 25.9234ZM117.256 125V39.2374H139.388V125H117.256Z" fill="#181E4B"/>
<path d="M191.019 127.075C183.411 127.075 176.725 125.865 170.962 123.444C165.198 120.908 160.587 117.45 157.129 113.069C153.671 108.689 151.596 103.617 150.904 97.8534H173.21C173.901 101.196 175.746 104.078 178.743 106.499C181.855 108.804 185.832 109.957 190.673 109.957C195.515 109.957 199.031 108.977 201.221 107.018C203.526 105.058 204.679 102.81 204.679 100.274C204.679 96.5854 203.065 94.107 199.837 92.839C196.61 91.4558 192.114 90.1301 186.351 88.8621C182.662 88.0552 178.916 87.0754 175.112 85.9227C171.308 84.77 167.792 83.3291 164.564 81.6C161.452 79.7556 158.916 77.4502 156.956 74.6836C154.997 71.8018 154.017 68.286 154.017 64.1362C154.017 56.5282 157.014 50.1306 163.008 44.9434C169.117 39.7561 177.648 37.1625 188.598 37.1625C198.742 37.1625 206.811 39.5256 212.806 44.2517C218.915 48.9779 222.546 55.4908 223.699 63.7904H202.777C201.509 57.4504 196.725 54.2804 188.426 54.2804C184.276 54.2804 181.048 55.0873 178.743 56.7011C176.552 58.315 175.457 60.3322 175.457 62.7529C175.457 65.2889 177.129 67.3062 180.472 68.8047C183.815 70.3033 188.253 71.6866 193.786 72.9545C199.78 74.3378 205.255 75.894 210.212 77.6231C215.284 79.2369 219.318 81.7152 222.316 85.0581C225.313 88.2858 226.811 92.9543 226.811 99.0637C226.926 104.366 225.543 109.15 222.661 113.415C219.78 117.68 215.63 121.023 210.212 123.444C204.794 125.865 198.397 127.075 191.019 127.075Z" fill="#181E4B"/>
<path d="M281.518 127.075C272.757 127.075 265.034 125.173 258.348 121.369C251.662 117.565 246.36 112.262 242.441 105.461C238.637 98.6603 236.735 90.8794 236.735 82.1187C236.735 73.358 238.637 65.5771 242.441 58.776C246.36 51.975 251.662 46.6724 258.348 42.8685C265.034 39.0645 272.757 37.1625 281.518 37.1625C292.469 37.1625 301.691 40.0443 309.183 45.8079C316.676 51.4562 321.46 59.2948 323.535 69.3235H300.192C299.039 65.1737 296.734 61.946 293.276 59.6406C289.933 57.2199 285.956 56.0095 281.345 56.0095C275.236 56.0095 270.048 58.315 265.783 62.9258C261.518 67.5367 259.386 73.9344 259.386 82.1187C259.386 90.303 261.518 96.7007 265.783 101.312C270.048 105.922 275.236 108.228 281.345 108.228C285.956 108.228 289.933 107.075 293.276 104.77C296.734 102.464 299.039 99.179 300.192 94.9139H323.535C321.46 104.597 316.676 112.378 309.183 118.257C301.691 124.135 292.469 127.075 281.518 127.075Z" fill="#181E4B"/>
<path d="M377.415 127.075C369.115 127.075 361.622 125.173 354.936 121.369C348.366 117.565 343.121 112.32 339.202 105.634C335.398 98.8332 333.496 90.9947 333.496 82.1187C333.496 73.2427 335.455 65.4618 339.375 58.776C343.294 51.975 348.539 46.6724 355.109 42.8685C361.795 39.0645 369.288 37.1625 377.587 37.1625C385.772 37.1625 393.149 39.0645 399.72 42.8685C406.406 46.6724 411.65 51.975 415.454 58.776C419.374 65.4618 421.333 73.2427 421.333 82.1187C421.333 90.9947 419.374 98.8332 415.454 105.634C411.65 112.32 406.406 117.565 399.72 121.369C393.034 125.173 385.599 127.075 377.415 127.075ZM377.415 107.882C383.178 107.882 388.193 105.75 392.458 101.484C396.723 97.1041 398.855 90.6489 398.855 82.1187C398.855 73.5885 396.723 67.1909 392.458 62.9258C388.193 58.5455 383.236 56.3553 377.587 56.3553C371.709 56.3553 366.637 58.5455 362.371 62.9258C358.222 67.1909 356.147 73.5885 356.147 82.1187C356.147 90.6489 358.222 97.1041 362.371 101.484C366.637 105.75 371.651 107.882 377.415 107.882Z" fill="#181E4B"/>
<path d="M453.154 125L421.685 39.2374H444.854L466.641 104.078L488.427 39.2374H511.597L479.955 125H453.154Z" fill="#181E4B"/>
<path d="M556.09 127.075C547.444 127.075 539.779 125.231 533.093 121.542C526.407 117.853 521.162 112.666 517.358 105.98C513.554 99.2943 511.652 91.571 511.652 82.8103C511.652 73.9344 513.497 66.0382 517.185 59.1219C520.989 52.2055 526.177 46.8454 532.747 43.0414C539.433 39.1221 547.272 37.1625 556.263 37.1625C564.678 37.1625 572.113 39.0068 578.568 42.6955C585.023 46.3843 590.038 51.4562 593.611 57.9115C597.3 64.2515 599.144 71.3407 599.144 79.1793C599.144 80.4472 599.086 81.7729 598.971 83.1562C598.971 84.5394 598.913 85.9803 598.798 87.4789H533.612C534.073 94.1647 536.378 99.4096 540.528 103.214C544.793 107.018 549.923 108.92 555.917 108.92C560.413 108.92 564.159 107.94 567.156 105.98C570.268 103.905 572.574 101.254 574.072 98.0263H596.55C594.937 103.444 592.228 108.401 588.424 112.896C584.735 117.277 580.124 120.735 574.591 123.271C569.173 125.807 563.006 127.075 556.09 127.075ZM556.263 55.145C550.845 55.145 546.061 56.7011 541.911 59.8135C537.762 62.8106 535.11 67.4215 533.958 73.6462H576.666C576.32 67.9978 574.245 63.5022 570.441 60.1593C566.637 56.8164 561.911 55.145 556.263 55.145Z" fill="#181E4B"/>
<path d="M610.842 125V39.2374H630.554L632.629 55.3179C635.741 49.7848 639.949 45.4044 645.251 42.1768C650.669 38.8339 657.009 37.1625 664.271 37.1625V60.5051H658.047C653.205 60.5051 648.882 61.2544 645.078 62.7529C641.274 64.2515 638.277 66.8451 636.087 70.5338C634.012 74.2225 632.975 79.3522 632.975 85.9227V125H610.842Z" fill="#181E4B"/>
</svg>
